<svg xmlns="http://www.w3.org/2000/svg" data-name="Layer 1" viewBox="0 0 100 125" x="0px" y="0px"><title>dice</title><path d="M66.69,50.4,41,76.09a7.21,7.21,0,0,1-10.19,0L5.11,50.39a7.21,7.21,0,0,1,0-10.19L30.81,14.51a7.21,7.21,0,0,1,10.19,0L66.69,40.2A7.21,7.21,0,0,1,66.69,50.4ZM20.63,45.3a3.52,3.52,0,1,0-3.52,3.53A3.53,3.53,0,0,0,20.63,45.3Zm18.8-18.8A3.52,3.52,0,1,0,35.9,30,3.53,3.53,0,0,0,39.42,26.5Zm0,18.8a3.52,3.52,0,1,0-3.52,3.53A3.53,3.53,0,0,0,39.42,45.3Zm0,18.8a3.52,3.52,0,1,0-3.52,3.53A3.53,3.53,0,0,0,39.42,64.1ZM97,47.65v32.9a7.05,7.05,0,0,1-7,7H57.05a7.05,7.05,0,0,1-7-7V73.73l20-20a11.9,11.9,0,0,0,2.5-13.12H90A7.05,7.05,0,0,1,97,47.65ZM58.23,45.3a3.52,3.52,0,1,0-3.52,3.53A3.53,3.53,0,0,0,58.23,45.3ZM77,64.1a3.53,3.53,0,1,0-3.53,3.53A3.53,3.53,0,0,0,77,64.1Z"/><text x="0" y="115" fill="#000000" font-size="5px" font-weight="bold" font-family="'Helvetica Neue', Helvetica, Arial-Unicode, Arial, Sans-serif">Created by ICONZ</text><text x="0" y="120" fill="#000000" font-size="5px" font-weight="bold" font-family="'Helvetica Neue', Helvetica, Arial-Unicode, Arial, Sans-serif">from the Noun Project</text></svg>